# xmcd
#
# Track frame offsets:
#	150
#	49895
#	68252
#	89180
#	107250
#	127590
#	143845
#	194132
#	216090
#	237537
#	256015
#
# Disc length: 3560 seconds
#
# Revision: 2
# Processed by: cddbd v1.5.1PL0 Copyright (c) Steve Scherf et al.
# Submitted via: audiograbber 1.83.01
#
DISCID=990de60b
DTITLE=Magazin 60 - Vive la colo
DYEAR=1900
DGENRE=
TTITLE0=Scouts Toujours
TTITLE1=Chants du soir
TTITLE2=Vive la colo
TTITLE3=A couer vaillant
TTITLE4=Jeux de piste
TTITLE5=Scouts toujours (Single version)
TTITLE6=Scouts Toujours (Instrumental)
TTITLE7=Chants du soir (Instrumental)
TTITLE8=Vive la colo (Instrumental)
TTITLE9=A couer vaillant (Instrumental)
TTITLE10=Jeux de piste
EXTD=
EXTT0=
EXTT1=
EXTT2=
EXTT3=
EXTT4=
EXTT5=
EXTT6=
EXTT7=
EXTT8=
EXTT9=
EXTT10=
PLAYORDER=
